<?xml version="1.0" standalone="no"?><!DOCTYPE svg PUBLIC "-//W3C//DTD SVG 1.1//EN" "http://www.w3.org/Graphics/SVG/1.1/DTD/svg11.dtd"><svg t="1700990383183" class="icon" viewBox="0 0 1024 1024" version="1.1" xmlns="http://www.w3.org/2000/svg" p-id="3466" xmlns:xlink="http://www.w3.org/1999/xlink" width="200" height="200"><path d="M797.178112 79.36q31.5392 28.0576 50.176 47.3088 18.7392 19.3024 28.672 32.7168 9.8816 13.4144 12.2368 22.784 2.3552 9.3184 2.3552 16.3328v18.688H718.944512q-12.8 0-21.6064-8.7552-8.704-8.7552-14.592-20.48-5.8368-11.6224-8.704-23.9104-2.9696-12.288-2.9696-20.4288V0h2.3552q10.496 0 19.8656 2.3552 9.3184 2.304 22.7328 11.0592 13.4656 8.7552 32.7168 24.576 19.2512 15.7184 48.4352 41.4208z m-199.68 66.56q0 22.2208 7.0144 47.9232 7.0144 25.6512 22.2208 47.2576 15.1552 21.6064 38.5024 36.1984t54.8864 14.592h170.496v585.0112q0 33.792-13.4656 60.672-13.4144 26.88-35.584 46.1312-22.2208 19.3024-49.0496 29.7984-26.8288 10.496-52.5312 10.496H236.640512q-22.1184 0-48.4352-12.8-26.2656-12.9024-48.9984-33.8944-22.784-20.992-37.9904-48.4864Q86.112512 901.4272 86.112512 872.192V150.6304q0-24.576 11.6736-51.4048T128.710912 50.7904Q148.064512 29.184 172.538112 14.592 197.011712 0 223.840512 0h373.6576v145.92zM504.160512 672.6144q14.0288-14.0288 15.2064-37.376 1.1264-23.3472-12.8512-36.1984L314.976512 406.3232q-14.0288-14.0288-34.4576-14.0288-20.48 0-34.4576 14.0288-13.9776 15.2064-13.9776 35.6352 0 20.4288 13.9776 34.4064l156.4672 158.8224-156.4672 157.6448q-13.9776 13.9776-13.9776 34.4064 0 20.48 13.9776 35.6352 14.0288 14.0288 34.4576 14.0288 20.48 0 34.4576-14.0288l189.1328-190.3104z m239.36 129.5872H523.974912v73.5744h219.4944v-73.5744z" fill="#5C67DE" p-id="3467"></path></svg>